<svg id="Capa_1" enable-background="new 0 0 512 512" height="512" viewBox="0 0 512 512" width="512" xmlns="http://www.w3.org/2000/svg"><g id="XMLID_602_"><path id="XMLID_1038_" d="m449.906 151.007c0-20.789-12.731-38.842-31.409-46.126.126-1.442.189-2.891.189-4.345 0-27.319-22.226-49.545-49.544-49.545-2.022 0-4.031.122-6.02.364-5.863-20.906-24.931-35.969-47.675-35.969-6.985 0-13.755 1.434-20.003 4.2-9.253-12.15-23.813-19.586-39.444-19.586s-30.191 7.436-39.445 19.586c-6.248-2.766-13.018-4.2-20.003-4.2-22.744 0-41.812 15.063-47.675 35.969-1.988-.243-3.997-.364-6.02-.364-27.318 0-49.544 22.226-49.544 49.545 0 1.453.063 2.902.189 4.345-18.678 7.285-31.409 25.338-31.409 46.126 0 14.066 5.823 27.123 15.922 36.407-3.223 7.402-4.355 15.633-3.105 23.796l44.728 292.302c.747 4.882 4.946 8.487 9.885 8.487h252.691c4.938 0 9.138-3.605 9.885-8.487l44.728-292.303c1.24-8.099.135-16.265-3.03-23.623 10.216-9.288 16.109-22.409 16.109-36.579zm-343.227-29.12c2.833-.478 5.323-2.152 6.837-4.594 1.513-2.442 1.902-5.418 1.069-8.167-.844-2.783-1.271-5.672-1.271-8.589 0-16.291 13.253-29.545 29.544-29.545 3.64 0 7.203.661 10.593 1.964 3.023 1.162 6.418.789 9.116-1s4.363-4.773 4.469-8.008c.521-16.016 13.487-28.562 29.517-28.562 6.365 0 12.43 1.995 17.536 5.77 2.424 1.792 5.524 2.394 8.443 1.641 2.918-.753 5.341-2.782 6.595-5.522 4.801-10.494 15.35-17.275 26.873-17.275s22.072 6.781 26.874 17.275c1.254 2.74 3.677 4.769 6.595 5.522 2.917.751 6.02.15 8.443-1.641 5.106-3.775 11.171-5.77 17.536-5.77 16.029 0 28.995 12.546 29.517 28.562.105 3.235 1.771 6.22 4.469 8.008 2.697 1.789 6.094 2.162 9.116 1 3.39-1.303 6.953-1.964 10.593-1.964 16.291 0 29.544 13.254 29.544 29.545 0 2.919-.428 5.808-1.271 8.586-.834 2.75-.445 5.726 1.068 8.169s4.004 4.117 6.837 4.595c14.246 2.403 24.585 14.65 24.585 29.121 0 7.76-2.964 14.995-8.17 20.418-7.711-6.421-17.468-10.006-27.662-10.006-13.432 0-25.452 6.032-33.392 15.662-.444-.539-.902-1.067-1.375-1.586-8.15-8.946-19.766-14.076-31.867-14.076-14.184 0-26.733 6.744-34.582 17.267-.732-.871-1.498-1.72-2.297-2.547-9.173-9.492-21.494-14.719-34.693-14.719s-25.521 5.227-34.692 14.719c-.8.827-1.565 1.676-2.298 2.547-7.849-10.523-20.398-17.266-34.582-17.266-12.103 0-23.719 5.131-31.869 14.078-.472.519-.93 1.046-1.374 1.585-7.939-9.632-19.959-15.663-33.392-15.663-10.128 0-19.822 3.542-27.509 9.885-5.135-5.413-8.059-12.602-8.059-20.297.001-14.472 10.34-26.719 24.586-29.122zm120.96 88.699c-.253-7.707 2.559-15.004 7.919-20.55 5.369-5.557 12.583-8.617 20.311-8.617s14.941 3.061 20.312 8.618c5.365 5.552 8.177 12.859 7.917 20.575l-2.642 77.194c-7.827-3.485-16.481-5.438-25.587-5.438s-17.76 1.953-25.587 5.439zm-14.903 134.914c0-23.783 19.349-43.132 43.132-43.132s43.132 19.349 43.132 43.132-19.349 43.132-43.132 43.132-43.132-19.349-43.132-43.132zm21.55 59.33c6.737 2.458 14.005 3.802 21.582 3.802 7.576 0 14.844-1.344 21.581-3.802l-2.983 87.17h-37.196zm-139.606-196.645c-1.026-6.71.921-13.512 5.342-18.662 4.422-5.15 10.852-8.104 17.64-8.104 12.074 0 22.026 9.066 23.148 21.088l27.018 289.493h-29.719zm322.377 0-43.429 283.815h-29.719l27.018-289.492c1.121-12.022 11.073-21.088 23.147-21.088 6.788 0 13.217 2.954 17.64 8.104 4.422 5.149 6.369 11.952 5.343 18.661z"/><path id="XMLID_1048_" d="m168.308 133.5c5.522 0 10-4.477 10-10 0-8.895 7.236-16.131 16.131-16.131s16.131 7.236 16.131 16.131c0 5.523 4.478 10 10 10s10-4.477 10-10c0-19.923-16.208-36.131-36.131-36.131s-36.131 16.208-36.131 36.131c0 5.523 4.477 10 10 10z"/><path id="XMLID_1049_" d="m282.707 97.278c6.289-6.289 16.523-6.289 22.812 0 1.953 1.953 4.512 2.929 7.071 2.929s5.118-.977 7.071-2.929c3.905-3.905 3.905-10.237 0-14.142-14.088-14.087-37.01-14.087-51.098 0-3.905 3.905-3.905 10.237 0 14.142 3.908 3.905 10.238 3.906 14.144 0z"/></g></svg>